<?xml version="1.0" encoding="UTF-8" standalone="no"?>
<svg
   xmlns:dc="http://purl.org/dc/elements/1.1/"
   xmlns:cc="http://creativecommons.org/ns#"
   xmlns:rdf="http://www.w3.org/1999/02/22-rdf-syntax-ns#"
   xmlns:svg="http://www.w3.org/2000/svg"
   xmlns="http://www.w3.org/2000/svg"
   xmlns:sodipodi="http://sodipodi.sourceforge.net/DTD/sodipodi-0.dtd"
   xmlns:inkscape="http://www.inkscape.org/namespaces/inkscape"
   version="1.1"
   id="svg10"
   width="682.66669"
   height="682.66669"
   viewBox="0 0 682.66669 682.66669"
   sodipodi:docname="cat.svg"
   inkscape:version="1.0.2-2 (e86c870879, 2021-01-15)">
  <metadata
     id="metadata16">
    <rdf:RDF>
      <cc:Work
         rdf:about="">
        <dc:format>image/svg+xml</dc:format>
        <dc:type
           rdf:resource="http://purl.org/dc/dcmitype/StillImage" />
        <dc:title></dc:title>
      </cc:Work>
    </rdf:RDF>
  </metadata>
  <defs
     id="defs14">
    <inkscape:path-effect
       effect="powerstroke"
       id="path-effect119"
       is_visible="true"
       lpeversion="1"
       offset_points="0.41226897,13.248408"
       sort_points="true"
       interpolator_type="CentripetalCatmullRom"
       interpolator_beta="0.75"
       start_linecap_type="round"
       linejoin_type="spiro"
       miter_limit="4"
       scale_width="1"
       end_linecap_type="round" />
    <inkscape:path-effect
       effect="simplify"
       id="path-effect117"
       is_visible="true"
       lpeversion="1"
       steps="1"
       threshold="0.011777188"
       smooth_angles="0"
       helper_size="0"
       simplify_individual_paths="false"
       simplify_just_coalesce="false"
       step="1" />
    <inkscape:path-effect
       effect="powerstroke"
       id="path-effect112"
       is_visible="true"
       lpeversion="1"
       offset_points="0.77742412,13.248408"
       sort_points="true"
       interpolator_type="CentripetalCatmullRom"
       interpolator_beta="0.75"
       start_linecap_type="round"
       linejoin_type="spiro"
       miter_limit="4"
       scale_width="1"
       end_linecap_type="round" />
    <inkscape:path-effect
       effect="simplify"
       id="path-effect110"
       is_visible="true"
       lpeversion="1"
       steps="1"
       threshold="0.011777188"
       smooth_angles="0"
       helper_size="0"
       simplify_individual_paths="false"
       simplify_just_coalesce="false"
       step="1" />
    <inkscape:path-effect
       effect="powerstroke"
       id="path-effect105"
       is_visible="true"
       lpeversion="1"
       offset_points="0.5,0.5"
       sort_points="true"
       interpolator_type="CentripetalCatmullRom"
       interpolator_beta="0.75"
       start_linecap_type="round"
       linejoin_type="spiro"
       miter_limit="4"
       scale_width="1"
       end_linecap_type="round" />
    <inkscape:path-effect
       effect="simplify"
       id="path-effect103"
       is_visible="true"
       lpeversion="1"
       steps="1"
       threshold="0.011777188"
       smooth_angles="0"
       helper_size="0"
       simplify_individual_paths="false"
       simplify_just_coalesce="false"
       step="1" />
    <inkscape:path-effect
       effect="powerstroke"
       id="path-effect98"
       is_visible="true"
       lpeversion="1"
       offset_points="0.5,0.5"
       sort_points="true"
       interpolator_type="CentripetalCatmullRom"
       interpolator_beta="0.75"
       start_linecap_type="round"
       linejoin_type="spiro"
       miter_limit="4"
       scale_width="1"
       end_linecap_type="round" />
    <inkscape:path-effect
       effect="simplify"
       id="path-effect96"
       is_visible="true"
       lpeversion="1"
       steps="1"
       threshold="0.011777188"
       smooth_angles="0"
       helper_size="0"
       simplify_individual_paths="false"
       simplify_just_coalesce="false"
       step="1" />
    <inkscape:path-effect
       effect="powerstroke"
       id="path-effect91"
       is_visible="true"
       lpeversion="1"
       offset_points="0.4421701,13.248408"
       sort_points="true"
       interpolator_type="CentripetalCatmullRom"
       interpolator_beta="0.75"
       start_linecap_type="round"
       linejoin_type="spiro"
       miter_limit="4"
       scale_width="1"
       end_linecap_type="round" />
    <inkscape:path-effect
       effect="simplify"
       id="path-effect89"
       is_visible="true"
       lpeversion="1"
       steps="1"
       threshold="0.011777188"
       smooth_angles="0"
       helper_size="0"
       simplify_individual_paths="false"
       simplify_just_coalesce="false"
       step="1" />
    <inkscape:path-effect
       effect="powerstroke"
       id="path-effect84"
       is_visible="true"
       lpeversion="1"
       offset_points="0.50305943,20.89172"
       sort_points="true"
       interpolator_type="CentripetalCatmullRom"
       interpolator_beta="0.75"
       start_linecap_type="round"
       linejoin_type="spiro"
       miter_limit="4"
       scale_width="1"
       end_linecap_type="round" />
    <inkscape:path-effect
       effect="simplify"
       id="path-effect82"
       is_visible="true"
       lpeversion="1"
       steps="1"
       threshold="0.011777188"
       smooth_angles="0"
       helper_size="0"
       simplify_individual_paths="false"
       simplify_just_coalesce="false"
       step="1" />
    <inkscape:path-effect
       effect="powerstroke"
       id="path-effect77"
       is_visible="true"
       lpeversion="1"
       offset_points="0.56588494,20.89172"
       sort_points="true"
       interpolator_type="CentripetalCatmullRom"
       interpolator_beta="0.75"
       start_linecap_type="round"
       linejoin_type="spiro"
       miter_limit="4"
       scale_width="1"
       end_linecap_type="round" />
    <inkscape:path-effect
       effect="simplify"
       id="path-effect75"
       is_visible="true"
       lpeversion="1"
       steps="1"
       threshold="0.011777188"
       smooth_angles="0"
       helper_size="0"
       simplify_individual_paths="false"
       simplify_just_coalesce="false"
       step="1" />
    <inkscape:path-effect
       effect="powerstroke"
       id="path-effect68"
       is_visible="true"
       lpeversion="1"
       offset_points="1,0.5"
       sort_points="true"
       interpolator_type="CentripetalCatmullRom"
       interpolator_beta="0.75"
       start_linecap_type="round"
       linejoin_type="spiro"
       miter_limit="4"
       scale_width="1"
       end_linecap_type="round" />
    <inkscape:path-effect
       effect="simplify"
       id="path-effect66"
       is_visible="true"
       lpeversion="1"
       steps="1"
       threshold="0.011777188"
       smooth_angles="0"
       helper_size="0"
       simplify_individual_paths="false"
       simplify_just_coalesce="false"
       step="1" />
    <inkscape:path-effect
       effect="powerstroke"
       id="path-effect61"
       is_visible="true"
       lpeversion="1"
       offset_points="1,0.5"
       sort_points="true"
       interpolator_type="CentripetalCatmullRom"
       interpolator_beta="0.75"
       start_linecap_type="round"
       linejoin_type="spiro"
       miter_limit="4"
       scale_width="1"
       end_linecap_type="round" />
    <inkscape:path-effect
       effect="simplify"
       id="path-effect59"
       is_visible="true"
       lpeversion="1"
       steps="1"
       threshold="0.011777188"
       smooth_angles="0"
       helper_size="0"
       simplify_individual_paths="false"
       simplify_just_coalesce="false"
       step="1" />
    <inkscape:path-effect
       effect="powerstroke"
       id="path-effect54"
       is_visible="true"
       lpeversion="1"
       offset_points="0.5,0.5"
       sort_points="true"
       interpolator_type="CentripetalCatmullRom"
       interpolator_beta="0.75"
       start_linecap_type="round"
       linejoin_type="spiro"
       miter_limit="4"
       scale_width="1"
       end_linecap_type="round" />
    <inkscape:path-effect
       effect="simplify"
       id="path-effect52"
       is_visible="true"
       lpeversion="1"
       steps="1"
       threshold="0.011777188"
       smooth_angles="0"
       helper_size="0"
       simplify_individual_paths="false"
       simplify_just_coalesce="false"
       step="1" />
    <inkscape:path-effect
       effect="powerstroke"
       id="path-effect47"
       is_visible="true"
       lpeversion="1"
       offset_points="1,0.5"
       sort_points="true"
       interpolator_type="CentripetalCatmullRom"
       interpolator_beta="0.75"
       start_linecap_type="round"
       linejoin_type="spiro"
       miter_limit="4"
       scale_width="1"
       end_linecap_type="round" />
    <inkscape:path-effect
       effect="simplify"
       id="path-effect45"
       is_visible="true"
       lpeversion="1"
       steps="1"
       threshold="0.011777188"
       smooth_angles="0"
       helper_size="0"
       simplify_individual_paths="false"
       simplify_just_coalesce="false"
       step="1" />
    <inkscape:path-effect
       effect="powerstroke"
       id="path-effect40"
       is_visible="true"
       lpeversion="1"
       offset_points="0.5,0.5"
       sort_points="true"
       interpolator_type="CentripetalCatmullRom"
       interpolator_beta="0.75"
       start_linecap_type="round"
       linejoin_type="spiro"
       miter_limit="4"
       scale_width="1"
       end_linecap_type="round" />
    <inkscape:path-effect
       effect="simplify"
       id="path-effect38"
       is_visible="true"
       lpeversion="1"
       steps="1"
       threshold="0.011777188"
       smooth_angles="0"
       helper_size="0"
       simplify_individual_paths="false"
       simplify_just_coalesce="false"
       step="1" />
    <inkscape:path-effect
       effect="powerstroke"
       id="path-effect33"
       is_visible="true"
       lpeversion="1"
       offset_points="0.5927499,22.420383"
       sort_points="true"
       interpolator_type="CentripetalCatmullRom"
       interpolator_beta="0.75"
       start_linecap_type="round"
       linejoin_type="spiro"
       miter_limit="4"
       scale_width="1"
       end_linecap_type="round" />
    <inkscape:path-effect
       effect="simplify"
       id="path-effect31"
       is_visible="true"
       lpeversion="1"
       steps="1"
       threshold="0.011777188"
       smooth_angles="0"
       helper_size="0"
       simplify_individual_paths="false"
       simplify_just_coalesce="false"
       step="1" />
  </defs>
  <sodipodi:namedview
     pagecolor="#ffffff"
     bordercolor="#666666"
     borderopacity="1"
     objecttolerance="10"
     gridtolerance="10"
     guidetolerance="10"
     inkscape:pageopacity="0"
     inkscape:pageshadow="2"
     inkscape:window-width="1440"
     inkscape:window-height="837"
     id="namedview12"
     showgrid="false"
     inkscape:zoom="0.6075"
     inkscape:cx="203.01495"
     inkscape:cy="477.0371"
     inkscape:window-x="-8"
     inkscape:window-y="-8"
     inkscape:window-maximized="1"
     inkscape:current-layer="g18" />
  <g
     inkscape:groupmode="layer"
     inkscape:label="Image"
     id="g18"
     style="display:inline">
    <path
       style="fill:#000000;stroke:none;stroke-width:1.00103;  "
       d="m 317.73037,207.71589 c -2.67452,11.52611 -2.03412,21.13054 10.08493,26.82803 -12.52851,47.59092 -61.80044,74.16458 -95.80579,106.35722 -21.31853,20.18163 -34.99268,47.53727 -42.47469,75.47718 -4.07078,15.20354 -4.4883,29.24155 -2.1739,44.71338 1.70496,11.40091 4.49041,22.3696 9.61053,32.7898 31.75038,64.6158 103.72851,74.569 168.15808,66.22946 6.76698,-0.87539 13.28588,0.47198 20.16985,-0.93302 23.24878,-4.74756 50.01115,-16.60655 69.58599,-29.7185 18.53004,-12.41343 37.01772,-30.53129 40.04825,-53.46329 2.28928,-17.32296 -11.48875,-37.46981 -30.97182,-31.79618 13.34236,-63.68775 22.32803,-130.00762 10.08492,-194.75159 13.71349,-0.11328 12.7171,-6.58181 19.14927,-15.59802 3.59426,-5.0387 9.66539,-5.46198 12.14426,-12.22365 7.40133,-20.18858 -10.50546,-39.66771 -11.67531,-58.6242 -0.6878,-11.14396 13.48455,-27.51393 2.14606,-38.32064 -8.41587,-8.02119 -18.22043,3.93437 -26.28837,1.89285 -3.03052,-0.76668 -6.02575,-5.05926 -8.59034,-6.85495 -5.42065,-3.79467 -11.76205,-6.46247 -18.14883,-8.23193 -14.14814,-3.91967 -30.64003,-7.02069 -45.38217,-6.02696 -7.89146,0.53189 -17.24119,4.14125 -24.9249,3.62416 -7.69379,-0.51788 -13.87786,-10.062294 -22.47425,-11.160754 -8.90701,-1.13821 -14.22984,7.905124 -15.66391,15.396704 -2.23482,11.6691 2.731,21.30492 -1.57426,32.7898 -1.53089,4.08313 -4.03094,7.55418 -6.77202,10.92993 -9.7965,12.06646 -39.53594,43.3531 -8.26158,50.67517 m 110.93419,248.40765 -1.69729,-39.74522 6.73975,-15.89809 4.53015,-18.81937 -4.34962,3.92286 -7.23997,17.8774 h -1.0085 l -2.89841,-22.85251 -3.82925,-5.61898 -1.50769,7.60524 0.16741,22.85351 1.0085,39.74522 0.3096,14.6968 -13.42001,10.80175 -21.17835,-0.65778 c -1.11135,-10.921 -7.55865,-22.35172 -11.09341,-32.78981 -4.26089,-12.58135 -7.9449,-30.85025 -15.82124,-41.60431 -22.07086,-30.13682 -55.21597,-33.27073 -88.05351,-20.00079 v 1.98726 c 11.96779,1.07213 24.75749,-4.47829 37.31423,-3.93577 27.78902,1.2013 45.69077,22.21262 47.02097,48.64915 0.82193,16.34522 -5.63242,41.69473 -16.40111,54.44102 -17.43583,20.63771 -47.94777,23.51427 -70.95957,12.37468 -2.34878,-1.13672 -21.70476,-11.28666 -19.24102,-6.22013 2.51014,5.15992 12.28444,9.57164 17.22403,12.15608 16.36886,8.56708 34.10119,13.51735 51.43314,4.43059 9.23779,-4.84395 17.05563,-13.82835 27.2293,-16.7685 12.36816,-3.57409 6.36359,13.47064 15.72341,12.72244 3.17271,-0.25337 6.22239,-4.2428 8.48041,-6.13865 5.48318,-4.60249 11.22654,-8.9695 18.15287,-11.24988 7.28031,-2.39764 14.92569,2.63312 21.17834,0.61903 10.05467,-3.23725 17.79486,-13.73595 29.22713,-14.0251 5.10297,-0.13017 5.99448,7.82385 10.94114,6.59274 7.37107,-1.83325 10.42377,-15.93287 18.32834,-19.11646 15.44204,-6.21914 22.11523,13.51338 19.47903,24.83182 -7.43057,31.9025 -48.41269,52.31863 -76.96715,61.60411 -68.41916,22.24937 -163.31125,27.13605 -201.94459,-47.69328 -6.55217,-12.69064 -11.19124,-25.3346 -10.83222,-39.74523 1.29087,-51.947 30.05107,-91.41699 68.56236,-124.07465 27.51169,-23.32945 71.49105,-52.62466 71.60299,-92.53681 l 7.05944,-2.98089 c 0.55266,11.89574 13.50171,24.00909 23.19534,11.92356 l -12.88047,-3.82945 -9.30638,-9.08775 c -3.60636,-6.92063 -13.11947,-1.7319 -16.39606,-9.95121 -2.79655,-7.01901 7.22181,-14.65108 4.3234,-19.54173 -3.49846,-5.90415 -16.1631,1.59974 -16.7561,-8.27992 -0.39331,-6.5381 5.63545,-14.06982 9.46975,-18.86408 7.50519,-9.38305 15.03965,-17.96008 18.0389,-29.80892 2.81672,-11.13065 -8.74666,-25.3648 1.74268,-35.33975 9.44151,-8.978854 20.23944,6.73969 28.82372,7.95133 6.13366,0.86575 12.9914,-1.26331 19.16137,-1.41235 12.34193,-0.29789 25.27786,1.11734 37.31422,3.84803 8.34124,1.89227 16.7319,4.55331 24.20382,8.73341 4.56343,2.55323 8.8818,7.10684 13.94342,8.62292 5.75345,1.72385 15.62962,-13.8813 23.76715,-5.71486 5.95111,5.97221 -3.71226,22.72025 -4.92145,29.20936 -0.93588,5.02261 2.34677,11.07868 3.6336,15.89809 3.17675,11.90469 9.11576,27.32782 7.46385,39.74522 -1.1164,8.39121 -8.21417,5.52061 -11.57245,11.15649 -2.6846,4.50611 1.06295,10.17279 -4.22457,13.82537 -4.30425,2.97294 -13.19714,0.0437 -14.07856,6.85804 -2.22776,17.23453 1.67713,37.1916 2.10977,54.60597 0.81486,32.76099 -2.0654,66.91506 -6.77102,99.36305 -1.97161,13.59586 -4.06221,27.20065 -6.40595,40.73886 -0.91369,5.2742 -3.53981,12.48497 -9.16618,14.66798 -3.90086,1.51429 -13.12655,-1.13373 -17.98143,-0.75715 M 379.24843,167.48081 c -2.54141,0.35949 -16.04815,7.29573 -8.7507,9.69485 4.20038,1.38114 8.08307,-3.55581 12.78366,-1.88005 2.91252,1.03844 6.68529,6.28083 9.85196,5.67472 3.66587,-0.7025 0.90058,-6.41925 -0.2844,-7.9878 -3.09909,-4.10309 -8.4794,-6.22628 -13.60052,-5.50172 m 54.45859,18.3752 c 5.65362,-1.76269 10.8776,-6.47548 17.12925,-4.07985 2.95791,1.13473 6.31417,8.63068 8.91609,8.13288 4.96379,-0.94992 0.72611,-9.97407 -1.06296,-11.78943 -7.28333,-7.39112 -27.37048,-5.09117 -24.98238,7.7364 m -14.11889,10.92994 c -3.60839,2.27641 -3.74151,6.79345 -7.16938,9.5011 -7.60303,6.00649 -10.92903,-3.57409 -10.98349,-9.5011 -6.56126,3.6814 -5.62234,12.31407 1.02766,15.72023 5.32887,2.7305 10.84936,0.5465 15.10822,-2.80303 6.86683,12.36375 24.46906,5.8346 21.17835,-7.94904 h -2.01699 c -1.15371,1.91571 -2.18339,4.12555 -3.6699,5.8187 -4.99607,5.68952 -11.30218,0.42627 -11.30319,-5.8038 -7.5e-4,-4.67105 3.83833,-5.30797 6.27787,-8.48859 1.15069,-1.49938 1.39878,-3.39026 -7.6e-4,-4.84096 -6.04692,-6.2728 -16.1379,0.12122 -8.44815,8.34649 m -57.48407,232.50956 15.12739,44.71338 -19.16136,12.9172 c -1.02665,-6.36917 -4.47771,-10.20359 -11.09342,-10.92994 l 10.65473,-27.82166 z"
       id="path22" />
    <path
       style="fill:#f9f9f9;stroke-width:1.08705"
       d="m 307.63483,552.07127 c -34.20909,-3.49503 -59.30498,-13.52371 -78.63165,-31.42235 -16.28127,-15.07827 -28.44798,-36.39528 -32.47736,-56.90284 -4.17445,-21.24587 3.4866,-54.68182 18.33969,-80.04188 12.9635,-22.1338 30.14909,-40.58296 63.96252,-68.6654 39.17341,-32.53395 51.81005,-48.934 55.8787,-72.52034 1.09798,-6.36511 1.7194,-7.68814 4.22864,-9.00286 2.74883,-1.44026 2.9415,-1.393 2.9415,0.72158 0,3.17163 2.49296,7.58789 6.35653,11.26054 4.557,4.33182 10.93895,4.53029 15.00266,0.46658 l 2.89165,-2.89165 -6.41841,-1.82091 c -5.16219,-1.46453 -7.69497,-3.06524 -12.94071,-8.17851 -4.98498,-4.85909 -7.67528,-6.61357 -11.41402,-7.4436 -5.14201,-1.14158 -8.69639,-4.35984 -8.69639,-7.87401 0,-1.14939 1.22293,-4.50314 2.71763,-7.45277 4.62542,-9.12785 3.59041,-11.35461 -5.67094,-12.20054 -3.11902,-0.28489 -6.42093,-1.14041 -7.33758,-1.90117 -3.82111,-3.17123 -0.80464,-11.11857 8.72468,-22.98651 8.68956,-10.82207 14.4851,-20.30192 16.36493,-26.76826 1.52801,-5.25618 1.52482,-6.59853 -0.0338,-14.29096 -2.21197,-10.91656 -2.17542,-16.36872 0.13219,-19.71685 4.80189,-6.96712 8.74514,-7.04655 20.07482,-0.40442 9.40166,5.51181 10.76626,5.73361 26.50312,4.30764 24.3813,-2.20929 53.96763,4.83835 72.06945,17.16739 3.19893,2.17877 6.52764,3.9614 7.39712,3.9614 0.86948,0 4.82511,-1.95669 8.79029,-4.34819 8.35288,-5.03786 9.9192,-5.25634 13.13595,-1.83228 3.15289,3.3561 2.96398,7.07373 -0.91901,18.08577 -3.82486,10.84718 -4.00074,14.90307 -1.0202,23.52538 4.50777,13.04028 8.65099,31.17883 8.65099,37.873 0,7.23154 -1.23943,9.22306 -7.76103,12.47037 -3.4195,1.70268 -5.28356,5.37299 -5.28356,10.40327 0,5.5232 -2.0959,7.14998 -11.19139,8.68645 -3.14091,0.53059 -4.40127,1.39644 -5.2807,3.62783 -1.17072,2.97047 -0.76749,20.84478 1.15739,51.30459 1.81319,28.69243 -1.38021,72.97687 -8.70111,120.66242 -3.76748,24.53994 -5.50561,31.42538 -8.94108,35.41935 -2.5901,3.01116 -4.27986,3.32149 -15.5562,2.857 l -5.57467,-0.22964 -0.78269,-19.83864 -0.78271,-19.83864 2.90242,-6.5223 c 2.79707,-6.28559 8.17336,-24.45245 8.179,-27.63746 0.007,-3.61916 -5.63086,4.05869 -8.96024,12.20365 l -3.53809,8.65553 -1.30369,-10.74249 c -1.1934,-9.83361 -3.8047,-17.80832 -5.83129,-17.80832 -1.86337,0 -2.29449,13.11796 -1.58409,48.20033 l 0.75191,37.13301 -6.53768,5.2053 -6.53767,5.2053 -10.01123,-0.31358 -10.01122,-0.31358 -1.40233,-5.48955 c -0.77128,-3.01925 -3.34037,-10.35683 -5.70908,-16.30574 -2.36871,-5.94889 -5.88482,-16.19707 -7.81356,-22.77371 -7.06633,-24.09495 -15.96847,-37.81149 -30.76696,-47.40613 -11.06528,-7.17423 -18.64829,-9.12041 -35.5361,-9.12041 -13.17195,0 -15.70514,0.32376 -24.73036,3.16072 -11.92371,3.74807 -13.38275,6.07929 -3.80468,6.07901 3.4378,-1.1e-4 10.08465,-0.73387 14.77079,-1.63058 30.75129,-5.88439 52.9467,6.74747 61.09282,34.76917 2.46334,8.47357 1.67084,26.93964 -1.65687,38.60682 -5.77931,20.26266 -14.98483,32.55704 -29.60455,39.53818 -18.03415,8.61157 -34.46388,8.02164 -56.38011,-2.02439 -12.78706,-5.86138 -17.30063,-7.05464 -17.30063,-4.57382 0,2.7191 7.35394,8.04918 19.03339,13.79525 25.10672,12.35203 41.39819,11.52019 61.28728,-3.12932 9.30355,-6.85263 15.87017,-10.11928 19.49867,-9.69986 2.23495,0.25834 3.44544,1.46659 5.23743,5.22772 4.5025,9.45011 6.40531,9.7444 15.08968,2.33373 3.40029,-2.90159 8.92419,-6.93726 12.27531,-8.96816 5.58675,-3.38577 6.68345,-3.65909 13.20077,-3.28986 15.40953,0.87297 15.78123,0.8211 21.91877,-3.05903 17.51911,-11.07554 22.29042,-12.22855 27.24382,-6.58356 1.57388,1.79363 3.57353,3.26114 4.44366,3.26114 2.64496,0 7.13351,-4.20685 11.76433,-11.02603 2.59409,-3.81996 5.87668,-7.18118 8.00387,-8.19557 5.17171,-2.46622 10.71993,-1.18677 14.01975,3.23301 15.1591,20.30417 -5.90965,52.03242 -47.81913,72.0127 -19.62229,9.35488 -48.95399,17.75701 -75.56188,21.64483 -11.61959,1.6978 -40.09735,2.95032 -48.21746,2.12071 z M 436.72188,212.52691 c 2.04906,-2.29309 2.98939,-4.5368 2.98939,-7.13293 0,-4.95576 -2.95397,-5.06061 -5.99346,-0.21274 -2.7944,4.45697 -7.18428,5.22043 -9.66365,1.68065 -2.60309,-3.71644 -2.13185,-6.18399 2.06899,-10.83382 2.09257,-2.31623 3.80468,-4.69908 3.80468,-5.29524 0,-2.07524 -4.36645,-5.43211 -7.06582,-5.43211 -2.53228,0 -7.07424,3.32228 -7.05912,5.16348 0.003,0.44841 0.69468,2.134 1.53554,3.74576 0.84087,1.61176 1.20473,3.07928 0.80859,3.26115 -0.39614,0.18187 -2.02821,2.34286 -3.62683,4.80219 -3.66418,5.63702 -6.68846,6.58534 -9.52029,2.98526 -1.15389,-1.46693 -2.40912,-4.08378 -2.78941,-5.81522 -0.80783,-3.67802 -2.90757,-3.39338 -4.74689,0.64349 -1.92125,4.21668 -1.48846,6.63609 1.85675,10.38004 2.62148,2.93395 3.84695,3.45947 8.06716,3.45947 2.84082,0 6.17907,-0.78819 7.77945,-1.83681 1.54183,-1.01024 2.80333,-1.32916 2.80333,-0.70872 0,0.62045 1.58981,2.12494 3.53291,3.3433 5.01317,3.14338 11.25125,2.24276 15.21868,-2.1972 z m 24.61848,-22.78585 c 1.99914,-1.26581 0.91451,-8.26091 -1.74399,-11.24749 -7.80124,-8.764 -26.4074,-5.49964 -26.4074,4.63305 0,1.79364 0.20403,3.26115 0.4534,3.26115 0.24938,0 2.73579,-0.97834 5.52537,-2.1741 7.72011,-3.30922 10.66161,-2.89259 15.34949,2.1741 4.34359,4.69459 4.54695,4.79453 6.82313,3.35329 z m -66.1981,-12.15707 c 0,-6.29395 -9.43691,-12.17709 -16.63492,-10.3705 -3.80347,0.95461 -9.9359,5.41949 -10.34235,7.53002 -0.53223,2.76362 2.65628,3.46291 8.71241,1.91078 5.13026,-1.31485 5.55054,-1.24925 9.35939,1.46078 2.19336,1.5606 5.09438,2.83746 6.4467,2.83746 2.02469,0 2.45877,-0.5947 2.45877,-3.36854 z"
       id="path72" />
    <path
       style="opacity:1;fill:#502d16;stroke:#000000;stroke-width:0;stroke-linecap:butt;stroke-linejoin:miter;stroke-opacity:1;stroke-miterlimit:4;stroke-dasharray:none"
       d="m 414.08871,175.19049 c 0,0 -23.83817,-0.17562 -34.16513,-20.28603 -10.32697,-20.1104 29.62612,-20.26712 45.65605,-17.39278 11.37408,2.0395 41.81379,4.43636 26.08917,22.82803 -6.9791,8.16283 -14.30687,9.9102 -21.19745,15.21868 -5.3771,4.1425 -6.45026,20.09303 -16.38264,-0.3679 z"
       id="path956"
       sodipodi:nodetypes="cssssc" />
    <path
       style="fill:#784421;stroke:#000000;stroke-width:0;stroke-linecap:butt;stroke-linejoin:miter;stroke-miterlimit:4;stroke-dasharray:none;stroke-opacity:1"
       d="m 339.54197,128.25625 c 0,0 -7.38258,-38.304702 23.30138,-20.1104 17.56842,10.41734 -23.30138,20.1104 -23.30138,20.1104 z"
       id="path958"
       sodipodi:nodetypes="csc" />
    <path
       style="fill:#784421;stroke:#000000;stroke-width:0;stroke-linecap:butt;stroke-linejoin:miter;stroke-miterlimit:4;stroke-dasharray:none;stroke-opacity:1"
       d="m 467.14475,137.19912 c 0,0 37.33557,-30.0301 22.15375,17.72077 -3.50801,11.03364 -22.15375,-17.72077 -22.15375,-17.72077 z"
       id="path960"
       sodipodi:nodetypes="sss" />
    <path
       style="fill:#784421;stroke:#000000;stroke-width:0;stroke-linecap:butt;stroke-linejoin:miter;stroke-miterlimit:4;stroke-dasharray:none;stroke-opacity:1"
       d="m 320.7903,496.225 c 0,0 36.78486,-41.6265 36.78486,12.37545 0,54.00196 -36.78486,-12.37545 -36.78486,-12.37545 z"
       id="path962"
       inkscape:transform-center-x="61.222063"
       inkscape:transform-center-y="4.1154416" />
    <path
       style="display:inline;fill:#784421;stroke:#000000;stroke-width:0;stroke-linecap:butt;stroke-linejoin:miter;stroke-miterlimit:4;stroke-dasharray:none;stroke-opacity:1"
       d="m 364.82995,490.47593 c 0,0 39.254,-38.74584 39.254,15.25611 0,54.00196 -39.254,-15.25611 -39.254,-15.25611 z"
       id="path962-5"
       inkscape:transform-center-x="61.222063"
       inkscape:transform-center-y="4.1154416"
       sodipodi:nodetypes="csc" />
    <path
       style="display:inline;fill:#784421;stroke:#000000;stroke-width:0;stroke-linecap:butt;stroke-linejoin:miter;stroke-opacity:1;stroke-miterlimit:4;stroke-dasharray:none"
       d="m 411.34546,476.4461 c 0,0 39.254,-38.74584 39.254,15.25611 0,54.00196 -39.254,-15.25611 -39.254,-15.25611 z"
       id="path962-5-8"
       inkscape:transform-center-x="61.222063"
       inkscape:transform-center-y="4.1154416"
       sodipodi:nodetypes="csc" />
    <path
       style="fill:#784421;stroke:#000000;stroke-width:0;stroke-linecap:butt;stroke-linejoin:miter;stroke-opacity:1;stroke-miterlimit:4;stroke-dasharray:none"
       d="m 238.90316,348.89754 c 11.47381,-9.05769 -10.51112,57.5868 -12.80359,86.71516 -2.17668,27.65709 26.18611,77.10289 -0.87297,83.22326 -3.90748,0.88382 -33.40396,-39.00164 -32.00895,-77.11246 1.39502,-38.11082 34.2117,-83.76827 45.68551,-92.82596 z"
       id="path1006"
       sodipodi:nodetypes="zaszz" />
  </g>
</svg>
